<svg xmlns="http://www.w3.org/2000/svg" xmlns:xlink="http://www.w3.org/1999/xlink" width="100.0" height="100.0" viewBox="-5.4 -5.4 10.8 10.8" preserveAspectRatio="xMinYMin meet"><g transform="matrix(1,0,0,-1,0,0.0)"><path fill-rule="evenodd" fill="#66cc99" stroke="#555555" stroke-width="0.21600000000000003" opacity="0.6" d="M 5.0,0.0 L 4.975923633360985,-0.490085701647803 L 4.903926402016152,-0.9754516100806412 L 4.784701678661044,-1.4514233862723116 L 4.619397662556434,-1.913417161825449 L 4.409606321741776,-2.3569836841299883 L 4.157348061512726,-2.777851165098011 L 3.865052266813685,-3.1719664208182277 L 3.5355339059327378,-3.5355339059327378 L 3.1719664208182277,-3.8650522668136844 L 2.7778511650980113,-4.157348061512726 L 2.356983684129989,-4.409606321741775 L 1.9134171618254492,-4.619397662556434 L 1.4514233862723116,-4.784701678661045 L 0.9754516100806416,-4.903926402016152 L 0.49008570164780385,-4.975923633360984 L 3.061616997868383e-16,-5.0 L -0.49008570164780324,-4.975923633360985 L -0.975451610080641,-4.903926402016152 L -1.4514233862723107,-4.784701678661045 L -1.9134171618254485,-4.619397662556434 L -2.3569836841299887,-4.409606321741776 L -2.77785116509801,-4.157348061512726 L -3.1719664208182268,-3.8650522668136853 L -3.5355339059327373,-3.5355339059327378 L -3.865052266813685,-3.1719664208182277 L -4.157348061512726,-2.777851165098011 L -4.409606321741775,-2.356983684129989 L -4.619397662556434,-1.9134171618254494 L -4.784701678661044,-1.451423386272312 L -4.903926402016152,-0.9754516100806431 L -4.975923633360984,-0.49008570164780413 L -5.0,-6.123233995736766e-16 L -4.975923633360985,0.49008570164780296 L -4.903926402016152,0.9754516100806419 L -4.784701678661045,1.4514233862723105 L -4.619397662556434,1.9134171618254483 L -4.409606321741776,2.3569836841299883 L -4.157348061512727,2.77785116509801 L -3.8650522668136853,3.1719664208182263 L -3.5355339059327386,3.5355339059327373 L -3.1719664208182294,3.8650522668136835 L -2.777851165098011,4.157348061512726 L -2.356983684129989,4.409606321741775 L -1.9134171618254516,4.619397662556432 L -1.4514233862723123,4.784701678661044 L -0.9754516100806433,4.903926402016151 L -0.49008570164780224,4.975923633360985 L -9.184850993605148e-16,5.0 L 0.49008570164780046,4.975923633360985 L 0.9754516100806415,4.903926402016152 L 1.4514233862723103,4.784701678661045 L 1.91341716182545,4.619397662556433 L 2.356983684129988,4.409606321741776 L 2.777851165098009,4.157348061512727 L 3.171966420818228,3.8650522668136844 L 3.535533905932737,3.5355339059327386 L 3.8650522668136826,3.1719664208182294 L 4.157348061512726,2.777851165098011 L 4.409606321741774,2.3569836841299896 L 4.619397662556432,1.913417161825452 L 4.784701678661044,1.4514233862723125 L 4.903926402016151,0.9754516100806436 L 4.975923633360985,0.4900857016478025 L 5.0,0.0 z" /></g></svg>