<svg xmlns="http://www.w3.org/2000/svg" xmlns:xlink="http://www.w3.org/1999/xlink" width="100.0" height="100.0" viewBox="-1.2799999781168871 -1.2799999781168871 5.559785680073568 7.5599994091559495" preserveAspectRatio="xMinYMin meet"><g transform="matrix(1,0,0,-1,0,4.999999452922175)"><path fill-rule="evenodd" fill="#66cc99" stroke="#555555" stroke-width="0.151199988183119" opacity="0.6" d="M 1.2792407799438736,1.0 L 1.809783249457352,2.5916274085404356 L -0.5547001962252291,4.167949705662156 L -0.6335843536267827,4.226326382226115 L -0.7063667473504724,4.292153958662257 L -0.772346443157834,4.364798479424488 L -0.8308880205100727,4.443560338066334 L -0.8814276920152049,4.527681014833461 L -0.9234787330088414,4.616350381623564 L -0.956636168978776,4.708714503962846 L -0.9805806756909201,4.803883864861816 L -0.995081654456237,4.90094193135015 L -0.9999994529221752,4.998953981190232 L -0.9952867100011656,5.096976104763264 L -0.9809888119837851,5.194064295434894 L -0.957243455443967,5.289283540855151 L -0.924279321145722,5.3817168276385035 L -0.8824138717223711,5.470473972704054 L -0.8320502943378439,5.5547001962252285 L -0.7736736177738848,5.633584353626784 L -0.7078460413377431,5.706366747350472 L -0.6352015205755119,5.772346443157835 L -0.5564396619336661,5.830888020510073 L -0.4723189851665388,5.881427692015205 L -0.3836496183764362,5.923478733008841 L -0.29128549603715376,5.956636168978776 L -0.1961161351381841,5.98058067569092 L -0.099058068649849,5.995081654456237 L -0.0010460188097677038,5.999999452922175 L 0.09697610476326413,5.9952867100011655 L 0.1940642954348944,5.980988811983785 L 0.28928354085515157,5.957243455443967 L 0.3817168276385038,5.924279321145722 L 0.47047397270405383,5.882413871722371 L 0.5547001962252291,5.832050294337844 L 3.5547001962252294,3.8320502943378436 L 3.635265431144662,3.772293876702766 L 3.7094388879615283,3.7047669574035873 L 3.776474264022118,3.6301489643816853 L 3.83569707708988,3.5491906730302607 L 3.8865114517068093,3.4627066522027596 L 3.928406114645922,3.3715670683578716 L 3.9609595391310704,3.276688930304414 L 3.983844186065073,3.179026862637856 L 3.996829799592682,3.079563500702353 L 3.9997857238397936,2.979299603720206 L 3.99268221751883,2.879243985566355 L 3.9755907531732793,2.780403364500287 L 3.948683298050514,2.683772233983162 L 2.948683298050514,-0.31622776601683794 L 2.9139712248392278,-0.40577900409691187 L 2.8708283590869357,-0.49158719370011605 L 2.8196526657852,-0.5728608098580454 L 2.7609162075566105,-0.6488501561051407 L 2.69516079018286,-0.718854279942981 L 2.6229929647973536,-0.7822274386730521 L 2.5450784328438836,-0.8383850559548732 L 2.462135905412009,-0.8868091141440884 L 2.3749304735927845,-0.9270529326696995 L 2.2842665510090194,-0.9587452883730051 L 2.1909804536206527,-0.9815938398007853 L 2.0959326852517295,-0.9953878238658501 L 2.0,-1.0 L 0.0,-1.0 L -0.09801714032956045,-0.9951847266721969 L -0.19509032201612866,-0.9807852804032303 L -0.29028467725446244,-0.9569403357322088 L -0.38268343236509034,-0.9238795325112865 L -0.47139673682599786,-0.8819212643483549 L -0.5555702330196022,-0.8314696123025452 L -0.6343932841636459,-0.7730104533627367 L -0.7071067811865477,-0.7071067811865475 L -0.7730104533627371,-0.6343932841636453 L -0.8314696123025455,-0.555570233019602 L -0.881921264348355,-0.47139673682599764 L -0.9238795325112868,-0.38268343236508967 L -0.9569403357322089,-0.2902846772544621 L -0.9807852804032304,-0.19509032201612836 L -0.9951847266721969,-0.09801714032956059 L -1.0,1.2246467991473532e-16 L -0.9951847266721968,0.09801714032956083 L -0.9807852804032304,0.1950903220161286 L -0.9569403357322088,0.2902846772544624 L -0.9238795325112867,0.3826834323650899 L -0.8819212643483549,0.4713967368259978 L -0.8314696123025453,0.5555702330196022 L -0.773010453362737,0.6343932841636455 L -0.7071067811865475,0.7071067811865476 L -0.6343932841636454,0.7730104533627371 L -0.555570233019602,0.8314696123025453 L -0.4713967368259977,0.881921264348355 L -0.3826834323650897,0.9238795325112867 L -0.29028467725446216,0.9569403357322089 L -0.19509032201612841,0.9807852804032304 L -0.09801714032956065,0.9951847266721969 L 0.0,1.0 L 1.2792407799438736,1.0 z" /></g></svg>